<svg id="full_logo" data-name="Full Logo" xmlns="http://www.w3.org/2000/svg" viewBox="0 0 182.3 24">
	<defs>
		<style>.cls-1{fill:#fff;}</style>
	</defs>
	<title>AudioActive_logo</title>
	<g id="AA-text">
		<path class="cls-1" d="M44.55,23.8L42.92,19H33.59L32,23.8H28.15L36.81,0.11H39.7L48.37,23.8H44.55ZM38.34,5.47L34.66,16h7.27Z"/>
		<path class="cls-1" d="M59.87,23.8V22.1A6,6,0,0,1,55.39,24a5.83,5.83,0,0,1-4.15-1.53,6.2,6.2,0,0,1-1.69-4.76V6.93h3.39V17.21c0,2.63,1.49,3.76,3.39,3.76s3.49-1.16,3.49-3.76V6.93h3.39V23.8H59.87Z"/><path class="cls-1" d="M76,23.8V22a5.17,5.17,0,0,1-4.45,2,5.82,5.82,0,0,1-4.12-1.5c-1.69-1.7-1.89-4.59-1.89-7.15s0.2-5.42,1.89-7.12a5.73,5.73,0,0,1,4.08-1.5,5.2,5.2,0,0,1,4.42,1.9V0.11h3.39V23.8H76Zm-3.55-14c-3.05,0-3.52,2.59-3.52,5.59S69.39,21,72.44,21s3.49-2.63,3.49-5.62S75.5,9.76,72.44,9.76Z"/>
		<path class="cls-1" d="M82.69,4.56v-4l4,4h-4Zm0.1,19.24V6.93h3.39V23.8H82.79Z"/>
		<path class="cls-1" d="M100.87,22a6.81,6.81,0,0,1-5,2,6.73,6.73,0,0,1-5-2c-1.59-1.66-2-3.79-2-6.65s0.4-5,2-6.62a6.73,6.73,0,0,1,5-2,6.81,6.81,0,0,1,5,2c1.59,1.66,2,3.79,2,6.62S102.46,20.34,100.87,22ZM98.31,10.73a3.43,3.43,0,0,0-2.49-1,3.35,3.35,0,0,0-2.46,1c-1,1-1.16,2.79-1.16,4.62s0.13,3.59,1.16,4.62a3.38,3.38,0,0,0,2.46,1,3.45,3.45,0,0,0,2.49-1c1-1,1.16-2.79,1.16-4.62S99.34,11.76,98.31,10.73Z"/>
		<path class="cls-1" d="M120,23.8l-1.89-5.36H107.79L105.9,23.8h-2.69l8.7-23.69H114L122.7,23.8H120ZM113,3.74l-4.45,12.51h8.83Z"/>
		<path class="cls-1" d="M129.86,24c-4.12,0-7.24-2.79-7.24-8.38s3.12-8.38,7.24-8.38a6.46,6.46,0,0,1,5.38,2.43l-1.63,1.53a4.48,4.48,0,0,0-3.75-1.83,4.43,4.43,0,0,0-3.79,1.86A7,7,0,0,0,125,15.62,7,7,0,0,0,126.07,20a4.42,4.42,0,0,0,3.79,1.86A4.52,4.52,0,0,0,133.61,20l1.63,1.56A6.46,6.46,0,0,1,129.86,24Z"/>
		<path class="cls-1" d="M144.33,23.8c-2.79,0-4.18-2-4.18-4.39v-10h-3.32V7.22h3.32V1.45h2.39V7.22H146V9.36h-3.49v10c0,1.5.7,2.4,2.22,2.4H146V23.8h-1.69Z"/>
		<path class="cls-1" d="M149.36,4.7V1.83l2.86,2.86h-2.86Zm0.12,19.1V7.12h2.39V23.8h-2.39Z"/>
		<path class="cls-1" d="M162.36,23.8h-2.13l-6-16.37h2.59l4.45,13.14,4.48-13.14h2.59Z"/><path class="cls-1" d="M171.28,16.25c0,3.59,1.69,5.66,4.81,5.66A5.36,5.36,0,0,0,180.37,20L182,21.47A7.48,7.48,0,0,1,176,24c-4.32,0-7.14-2.59-7.14-8.38,0-5.29,2.56-8.38,6.71-8.38s6.71,3.06,6.71,7.92v1.1h-11Zm8.13-4.52a4.19,4.19,0,0,0-7.64,0,6.9,6.9,0,0,0-.5,2.73h8.63A6.91,6.91,0,0,0,179.41,11.72Z"/>
	</g>
	<g id="short-logo">
		<polygon class="cls-1" points="23.81 0 23.81 23.86 0 0 23.81 0"/>
		<polygon class="cls-1" points="11.91 11.93 11.91 23.86 0 11.93 11.91 11.93"/>
		<polygon class="cls-1" points="5.95 23.86 0 23.86 5.95 17.9 5.95 23.86"/>
	</g>
</svg>